{"title":"The.Boy.and.the.Beast.2015.1080p.BluRay.x264-WiKi","uid":13705584,"size":9658220340,"categoryP":"video","categoryS":"hd___movies","magnet":"?xt=urn:btih:b122dabf7e0dfe86ba089a75589cbbad3fc50719&amp;dn=The.Boy.and.the.Beast.2015.1080p.BluRay.x264-WiKi&amp;tr=udp%3A%2F%2Ftracker.leechers-paradise.org%3A6969&amp;tr=udp%3A%2F%2Fzer0day.ch%3A1337&amp;tr=udp%3A%2F%2Fopen.demonii.com%3A1337&amp;tr=udp%3A%2F%2Ftracker.coppersurfer.tk%3A6969&amp;tr=udp%3A%2F%2Fexodus.desync.com%3A6969","seeders":1,"leechers":0,"uploader":null,"files":3,"time":1456824852,"description":"http://www.imdb.com/title/tt4272866/\r\n\r\nWiKi PROUDLY PRESENTS\r\n\r\nThe.Boy.and.the.Beast.2015.1080p.BluRay.x264-WiKi\r\n\r\nNAME.................: The Boy and The Beast\r\nGENRE................: Animation | Action | Adventure\r\nRATiNG...............: 7.7/10 from 731 users\r\niMDB.................: http://www.imdb.com/title/tt4272866\r\nRELEASE DATE.........: 2016-02-28\r\nENCODE BY............: Jubowo @ WiKi\r\nRUNTiME..............: 1h:59m:06s\r\nFiLE SiZE............: 9.0 GiB\r\nViDEO CODEC..........: x264 @ 10166 Kbps\r\nAUDiO CODEC..........: Japanese DD 5.1 @ 640 Kbps\r\nFRAMERATE............: 23.976 fps\r\nRESOLUTiON...........: 1920x1036\r\nSUBTiTLES............: CHS_CHT_JX\r\n\r\nMEDIA INFO:\r\n\r\nVideo\r\nID                                       : 1\r\nFormat                                   : AVC\r\nFormat/Info                              : Advanced Video Codec\r\nFormat profile                           :   \r\nFormat settings, CABAC                   : Yes\r\nFormat settings, ReFrames                : 4 frames\r\nCodec ID                                 : V_MPEG4/ISO/AVC\r\nDuration                                 : 1h 59mn\r\nBit rate                                 : 10.2 Mbps\r\nWidth                                    : 1 920 pixels\r\nHeight                                   : 1 036 pixels\r\nDisplay aspect ratio                     : 1.85:1\r\nFrame rate mode                          : Constant\r\nFrame rate                               : 23.976 (24000/1001) fps\r\nColor space                              : YUV\r\nChroma subsampling                       : 4:2:0\r\nBit depth                                : 8 bits\r\nScan type                                : Progressive\r\nBits/(Pixel*Frame)                       : 0.213\r\nStream size                              : 8.45 GiB (94%)\r\nWriting library                          : x264 core 129 r2245+704+36 8e61944 tMod+MixAQ [  :2:0 X86_64]\r\nEncoding settings                        : cabac=1 / ref=4 / deblock=1:-1:-1 / analyse=0x3:0x133 / me=umh / subme=11 / psy=1 / fade_compensate=0.00 / psy_rd=1.00:0.00 / mixed_ref=1 / me_range=64 / chroma_me=1 / trellis=2 / 8x8dct=1 / cqm=0 / deadzone=21,11 / fast_pskip=0 / chroma_qp_offset=-2 / threads=12 / lookahead_threads=2 / sliced_threads=0 / nr=0 / decimate=0 / interlaced=0 / bluray_compat=0 / constrained_intra=0 / fgo=0 / bframes=10 / b_pyramid=2 / b_adapt=2 / b_bias=0 / direct=3 / weightb=1 / open_gop=0 / weightp=2 / keyint=250 / keyint_min=23 / scenecut=40 / intra_refresh=0 / rc=2pass / mbtree=0 / bitrate=10166 / ratetol=1.0 / qcomp=0.70 / qpmin=0 / qpmax=69 / qpstep=4 / cplxblur=20.0 / qblur=0.5 / ip_ratio=1.40 / pb_ratio=1.30 / aq=1 / aq-strength=0.95 / aq-sensitivity=10.00 / aq-ifactor=1.00 / aq-pfactor=1.00 / aq-bfactor=1.00 / aq2=0\r\nLanguage                                 : Japanese\r\nDefault                                  : Yes\r\nForced                                   : No\r\n\r\nAudio\r\nID                                       : 2\r\nFormat                                   : AC-3\r\nFormat/Info                              : Audio Coding 3\r\nMode extension                           : CM (complete main)\r\nFormat settings, Endianness              : Big\r\nCodec ID                                 : A_AC3\r\nDuration                                 : 1h 59mn\r\nBit rate mode                            : Constant\r\nBit rate                                 : 640 Kbps\r\nChannel(s)                               : 6 channels\r\nChannel positions                        : Front: L C R, Side: L R, LFE\r\nSampling rate                            : 48.0 KHz\r\nFrame rate                               : 31.250 fps (1536 spf)\r\nCompression mode                         : Lossy\r\nStream size                              : 545 MiB (6%)\r\nLanguage                                 : Japanese\r\nDefault                                  : Yes\r\nForced                                   : No\r\n\r\nText #1\r\nID                                       : 3\r\nFormat                                   : ASS\r\nCodec ID                                 : S_TEXT/ASS\r\nCodec ID/Info                            : Advanced Sub Station Alpha\r\nDuration                                 : 1h 58mn\r\nBit rate                                 : 93 bps\r\nCount of elements                        : 1914\r\nCompression mode                         : Lossless\r\nStream size                              : 81.5 KiB (0%)\r\nTitle                                    : Simplified\r\nLanguage                                 : Chinese\r\nDefault                                  : Yes\r\nForced                                   : No\r\n\r\nText #2\r\nID                                       : 4\r\nFormat                                   : ASS\r\nCodec ID                                 : S_TEXT/ASS\r\nCodec ID/Info                            : Advanced Sub Station Alpha\r\nDuration                                 : 1h 58mn\r\nBit rate                                 : 93 bps\r\nCount of elements                        : 1914\r\nCompression mode                         : Lossless\r\nStream size                              : 81.5 KiB (0%)\r\nTitle                                    : traditional\r\nLanguage                                 : Chinese\r\nDefault                                  : No\r\nForced                                   : No\r\n\r\nMenu\r\n00:00:00.000                             : en:00:00:00.000\r\n00:02:45.164                             : en:00:02:45.164\r\n00:07:00.420                             : en:00:07:00.420\r\n00:10:28.002                             : en:00:10:28.002\r\n00:15:40.648                             : en:00:15:40.648\r\n00:19:58.739                             : en:00:19:58.739\r\n00:29:19.841                             : en:00:29:19.841\r\n00:34:11.966                             : en:00:34:11.966\r\n00:38:05.783                             : en:00:38:05.783\r\n00:44:45.391                             : en:00:44:45.391\r\n00:49:55.409                             : en:00:49:55.409\r\n00:55:01.381                             : en:00:55:01.381\r\n01:02:33.833                             : en:01:02:33.833\r\n01:08:42.535                             : en:01:08:42.535\r\n01:14:48.233                             : en:01:14:48.233\r\n01:16:45.892                             : en:01:16:45.892\r\n01:23:46.938                             : en:01:23:46.938\r\n01:27:29.244                             : en:01:27:29.244\r\n01:33:16.340                             : en:01:33:16.340\r\n01:38:40.456                             : en:01:38:40.456\r\n01:42:22.261                             : en:01:42:22.261\r\n01:48:53.193                             : en:01:48:53.193\r\n01:54:02.835                             : en:01:54:02.835","torrent":{"xt":"urn:btih:b122dabf7e0dfe86ba089a75589cbbad3fc50719","amp;dn":"The.Boy.and.the.Beast.2015.1080p.BluRay.x264-WiKi","amp;tr":["udp%3A%2F%2Ftracker.leechers-paradise.org%3A6969","udp%3A%2F%2Fzer0day.ch%3A1337","udp%3A%2F%2Fopen.demonii.com%3A1337","udp%3A%2F%2Ftracker.coppersurfer.tk%3A6969","udp%3A%2F%2Fexodus.desync.com%3A6969"],"infoHash":"b122dabf7e0dfe86ba089a75589cbbad3fc50719","infoHashBuffer":{"type":"Buffer","data":[177,34,218,191,126,13,254,134,186,8,154,117,88,156,187,173,63,197,7,25]},"announce":[],"urlList":[]}}